<svg
  aria-hidden="true"
  style="position:absolute;width:0;height:0;overflow:hidden"
  xmlns="http://www.w3.org/2000/svg"
>
  <defs>
    <symbol
      id="icon-check"
      viewBox="0 0 32 32"
    >
      <path
        stroke-width=".4"
        d="m7.914 16.503-.138-.131-2.067 1.958 7.282 6.947 15.298-14.594-2.053-1.959-13.245 12.623-5.077-4.844z"
      />
    </symbol>
    <symbol
      id="icon-close"
      viewBox="0 0 32 32"
    >
      <path
        d="m26.667 7.303-1.97-1.97-7.808 7.808-7.808-7.808-1.97 1.97 7.808 7.808-7.808 7.808 1.97 1.97 7.808-7.808 7.808 7.808 1.97-1.97-7.808-7.808 7.808-7.808z"
      />
    </symbol>
    <symbol
      id="icon-email"
      viewBox="0 0 32 32"
    >
      <path
        d="M26.667 5.333H5.334A2.663 2.663 0 0 0 2.681 8l-.013 16c0 1.467 1.2 2.667 2.667 2.667h21.333c1.467 0 2.667-1.2 2.667-2.667V8c0-1.467-1.2-2.667-2.667-2.667zM26.133 11l-9.427 5.893a1.346 1.346 0 0 1-1.413 0L5.866 11a1.132 1.132 0 1 1 1.2-1.92l8.933 5.587 8.933-5.587a1.132 1.132 0 1 1 1.2 1.92z"
      />
    </symbol>
    <symbol
      id="icon-person"
      viewBox="0 0 32 32"
    >
      <path
        d="M16 16c2.947 0 5.333-2.387 5.333-5.333S18.946 5.334 16 5.334c-2.947 0-5.333 2.387-5.333 5.333S13.054 16 16 16zm0 2.667c-3.56 0-10.667 1.787-10.667 5.333v1.333c0 .733.6 1.333 1.333 1.333h18.667c.733 0 1.333-.6 1.333-1.333V24c0-3.547-7.107-5.333-10.667-5.333z"
      />
    </symbol>
    <symbol
      id="icon-phone"
      viewBox="0 0 32 32"
    >
      <path
        d="m24.882 19.773-3.268-.373a2.561 2.561 0 0 0-2.11.733L17.137 22.5a19.357 19.357 0 0 1-8.478-8.478l2.38-2.38a2.561 2.561 0 0 0 .733-2.11l-.373-3.242a2.575 2.575 0 0 0-2.56-2.277H6.613c-1.454 0-2.663 1.209-2.573 2.663.682 10.987 9.469 19.761 20.443 20.443 1.454.09 2.663-1.119 2.663-2.573V22.32a2.549 2.549 0 0 0-2.264-2.547z"
      />
    </symbol>
    <symbol
      id="icon-error"
      viewBox="0 0 32 32"
    >
      <path
        d="M16 0c-8.838 0-16 7.162-16 16s7.162 16 16 16 16-7.163 16-16-7.163-16-16-16zM14.5 9.5c0-0.825 0.675-1.5 1.5-1.5s1.5 0.672 1.5 1.5v8c0 0.828-0.672 1.5-1.5 1.5s-1.5-0.669-1.5-1.5v-8zM16 25c-1.085 0-1.965-0.88-1.965-1.965s0.879-1.965 1.965-1.965 1.965 0.88 1.965 1.965c-0.003 1.084-0.878 1.965-1.965 1.965z"
      ></path>
    </symbol>
    <symbol
      id="icon-success"
      viewBox="0 0 512 512"
    >
      <path
        d="M0 256C0 114.6 114.6 0 256 0C397.4 0 512 114.6 512 256C512 397.4 397.4 512 256 512C114.6 512 0 397.4 0 256zM371.8 211.8C382.7 200.9 382.7 183.1 371.8 172.2C360.9 161.3 343.1 161.3 332.2 172.2L224 280.4L179.8 236.2C168.9 225.3 151.1 225.3 140.2 236.2C129.3 247.1 129.3 264.9 140.2 275.8L204.2 339.8C215.1 350.7 232.9 350.7 243.8 339.8L371.8 211.8z"
      />
    </symbol>
  </defs>
</svg>
